3_states
version=1
nRows=19
nColumns=17
inDegrees=yes

# SIMM Motion File Header:
name 3_states
datacolumns 17
datarows 19
otherdata 1
range 0.030000 0.050355
endheader
time	/jointset/r_shoulder/r_shoulder_elev/value	/jointset/r_shoulder/r_shoulder_elev/speed	/jointset/r_elbow/r_elbow_flex/value	/jointset/r_elbow/r_elbow_flex/speed	/forceset/TRIlong/activation	/forceset/TRIlong/fiber_length	/forceset/TRIlat/activation	/forceset/TRIlat/fiber_length	/forceset/TRImed/activation	/forceset/TRImed/fiber_length	/forceset/BIClong/activation	/forceset/BIClong/fiber_length	/forceset/BICshort/activation	/forceset/BICshort/fiber_length	/forceset/BRA/activation	/forceset/BRA/fiber_length
      0.030000	      0.000000	      0.000000	    135.799993	   -140.000003	      0.020000	      0.184655	      0.471420	      0.118366	      0.482217	      0.113396	      0.679062	      0.057692	      0.020000	      0.060758	      0.020000	      0.049974
      0.030184	     -0.000000	     -0.000184	    135.774278	   -139.999910	      0.020000	      0.184647	      0.471939	      0.118358	      0.482698	      0.113388	      0.678785	      0.057711	      0.020000	      0.060774	      0.020000	      0.049984
      0.030367	     -0.000000	     -0.000733	    135.748563	   -139.999787	      0.020000	      0.184639	      0.472583	      0.118349	      0.483297	      0.113379	      0.678623	      0.057730	      0.020000	      0.060790	      0.020000	      0.049993
      0.031286	     -0.000004	     -0.007754	    135.619990	   -139.999659	      0.020000	      0.184598	      0.475653	      0.118307	      0.486156	      0.113337	      0.677832	      0.057822	      0.020000	      0.060870	      0.020000	      0.050040
      0.033650	     -0.000061	     -0.043468	    135.288960	   -140.016687	      0.020000	      0.184493	      0.482526	      0.118194	      0.492568	      0.113224	      0.675920	      0.058049	      0.020000	      0.061076	      0.020000	      0.050162
      0.034813	     -0.000122	     -0.062157	    135.126076	   -140.034398	      0.020000	      0.184441	      0.485432	      0.118137	      0.495286	      0.113167	      0.675042	      0.058158	      0.020000	      0.061178	      0.020000	      0.050223
      0.035977	     -0.000205	     -0.080055	    134.963168	   -140.058877	      0.020000	      0.184389	      0.488066	      0.118080	      0.497753	      0.113110	      0.674202	      0.058264	      0.020000	      0.061281	      0.020000	      0.050284
      0.037497	     -0.000341	     -0.096743	    134.750252	   -140.090643	      0.020000	      0.184321	      0.491144	      0.118004	      0.500639	      0.113035	      0.673159	      0.058402	      0.020000	      0.061415	      0.020000	      0.050363
      0.038671	     -0.000460	     -0.106041	    134.585779	   -140.112716	      0.020000	      0.184270	      0.493268	      0.117946	      0.502634	      0.112977	      0.672395	      0.058508	      0.020000	      0.061520	      0.020000	      0.050424
      0.039845	     -0.000587	     -0.108281	    134.421287	   -140.123929	      0.020000	      0.184216	      0.495195	      0.117888	      0.504446	      0.112920	      0.671664	      0.058613	      0.020000	      0.061624	      0.020000	      0.050486
      0.040195	     -0.000625	     -0.108252	    134.372217	   -140.125268	      0.020000	      0.184201	      0.495712	      0.117871	      0.504928	      0.112903	      0.671171	      0.058645	      0.020000	      0.061656	      0.020000	      0.050504
      0.040976	     -0.000709	     -0.106215	    134.262709	   -140.123832	      0.020000	      0.184166	      0.496663	      0.117833	      0.505784	      0.112864	      0.668253	      0.058716	      0.020000	      0.061726	      0.020000	      0.050545
      0.043142	     -0.000926	     -0.093018	    133.959214	   -140.104658	      0.020000	      0.184070	      0.499005	      0.117727	      0.507893	      0.112759	      0.660641	      0.058918	      0.020000	      0.061921	      0.020000	      0.050658
      0.044460	     -0.001041	     -0.082237	    133.774579	   -140.089881	      0.020000	      0.184010	      0.500240	      0.117663	      0.509008	      0.112695	      0.656327	      0.059044	      0.020000	      0.062040	      0.020000	      0.050728
      0.045882	     -0.001151	     -0.072315	    133.575406	   -140.079494	      0.020000	      0.183948	      0.501433	      0.117594	      0.510085	      0.112627	      0.651924	      0.059182	      0.020000	      0.062169	      0.020000	      0.050803
      0.047130	     -0.001235	     -0.062864	    133.400572	   -140.071197	      0.020000	      0.183891	      0.502373	      0.117534	      0.510936	      0.112567	      0.648259	      0.059304	      0.020000	      0.062283	      0.020000	      0.050869
      0.048378	     -0.001310	     -0.057038	    133.225746	   -140.068126	      0.020000	      0.183836	      0.503223	      0.117474	      0.511705	      0.112507	      0.644772	      0.059427	      0.020000	      0.062397	      0.020000	      0.050935
      0.049626	     -0.001377	     -0.051134	    133.050923	   -140.063790	      0.020000	      0.183780	      0.503991	      0.117414	      0.512402	      0.112448	      0.641452	      0.059550	      0.020000	      0.062512	      0.020000	      0.051001
      0.050355	     -0.001414	     -0.049374	    132.948840	   -140.061806	      0.020000	      0.183747	      0.504512	      0.117379	      0.512894	      0.112413	      0.639585	      0.059622	      0.020000	      0.062579	      0.020000	      0.051040
